<svg width="643" height="913" viewBox="0 0 643 913" fill="none" xmlns="http://www.w3.org/2000/svg">
<rect width="363" height="795" fill="#1C1B37"/>
<rect x="363" width="280" height="795" fill="#618AF7"/>
<rect y="726" width="226" height="187" fill="#EF8E67"/>
<rect x="226" y="726" width="417" height="187" fill="#1C1B37"/>
<g clip-path="url(#clip0_324_3)">
<path d="M324.5 538.255C258.083 538.255 195.611 528.374 148.591 510.434C100.945 492.254 74.7056 467.833 74.7056 441.669C74.7056 415.504 100.945 391.084 148.591 372.904C195.611 354.964 258.083 345.083 324.5 345.083C390.918 345.083 453.39 354.964 500.409 372.904C548.055 391.084 574.295 415.505 574.295 441.669C574.295 467.832 548.055 492.254 500.409 510.434C453.39 528.374 390.918 538.255 324.5 538.255ZM324.5 349.204C258.573 349.204 196.623 358.988 150.062 376.754C104.126 394.281 78.8288 417.335 78.8288 441.669C78.8288 466.002 104.126 489.057 150.062 506.584C196.623 524.35 258.573 534.134 324.5 534.134C390.428 534.134 452.377 524.35 498.938 506.584C544.874 489.057 570.171 466.003 570.171 441.669C570.171 417.334 544.874 394.281 498.938 376.754C452.377 358.988 390.427 349.204 324.5 349.204Z" fill="#61DAFB"/>
<path d="M427.707 663.338C407.066 663.338 381.336 651.416 352.863 628.291C313.805 596.569 274.007 547.442 240.798 489.962C207.59 432.482 184.916 373.475 176.954 323.812C168.886 273.486 176.929 238.567 199.603 225.485C222.277 212.404 256.561 222.903 296.137 255.047C335.195 286.77 374.994 335.896 408.202 393.376C441.411 450.856 464.084 509.863 472.046 559.527C480.115 609.852 472.071 644.771 449.397 657.854C443.036 661.523 435.757 663.338 427.707 663.338ZM221.404 224.089C214.045 224.089 207.424 225.73 201.665 229.054C180.576 241.221 173.247 274.641 181.025 323.16C188.91 372.339 211.406 430.845 244.369 487.902C277.333 544.958 316.787 593.68 355.463 625.093C393.621 656.085 426.249 666.454 447.336 654.284C468.424 642.117 475.754 608.697 467.975 560.179C460.09 510.999 437.594 452.493 404.631 395.436C371.668 338.381 332.214 289.658 293.537 258.245C265.802 235.718 240.988 224.089 221.404 224.089Z" fill="#61DAFB"/>
<path d="M221.293 663.338C213.241 663.338 205.966 661.524 199.603 657.854C176.929 644.771 168.886 609.852 176.954 559.527C184.916 509.863 207.59 450.856 240.798 393.376C274.007 335.896 313.805 286.77 352.863 255.047C392.44 222.902 426.725 212.403 449.397 225.485C472.071 238.567 480.115 273.486 472.046 323.812C464.084 373.475 441.411 432.482 408.202 489.962C374.994 547.442 335.195 596.569 296.137 628.291C267.667 651.415 241.933 663.338 221.293 663.338ZM427.596 224.089C408.012 224.089 383.201 235.717 355.463 258.245C316.787 289.658 277.333 338.381 244.369 395.436C211.406 452.493 188.91 510.999 181.025 560.179C173.247 608.697 180.576 642.117 201.665 654.284C207.423 657.607 214.047 659.249 221.404 659.25C240.989 659.252 265.799 647.622 293.537 625.093C332.214 593.68 371.668 544.958 404.631 487.902C437.594 430.845 460.09 372.339 467.975 323.16C475.754 274.641 468.424 241.221 447.336 229.054C441.577 225.731 434.953 224.089 427.596 224.089Z" fill="#61DAFB"/>
<path d="M324.5 487.807C349.998 487.807 370.669 467.15 370.669 441.669C370.669 416.188 349.998 395.532 324.5 395.532C299.002 395.532 278.332 416.188 278.332 441.669C278.332 467.15 299.002 487.807 324.5 487.807Z" fill="#61DAFB"/>
<path d="M606.182 568.988C605.311 567.522 601.546 569.092 600.854 567.761C600.164 566.435 603.662 564.414 605.661 559.798C606.021 558.966 608.293 553.72 606.611 552.102C603.424 549.034 588.841 561.695 583.737 557.552C582.617 556.642 581.834 554.827 578.445 551.88C577.096 550.707 576.28 550.178 575.491 550.375C574.371 550.655 574.283 552.152 573.082 555.097C571.281 559.513 570.216 559.247 569.167 562.77C568.388 565.386 568.566 566.907 567.649 567.203C566.352 567.622 565.158 564.848 563.515 565.096C561.837 565.35 560.823 568.58 560.503 570.999C559.902 575.538 561.57 578.533 562.494 581.682C563.499 585.104 564.095 590.309 561.775 597.677L538.812 662.333C543.881 649.066 558.56 612.697 564.728 599.182C566.509 595.28 568.475 591.323 572.512 589.761C576.399 588.257 581.736 589.155 588.541 587.517C589.336 587.326 591.541 586.765 591.819 585.469C592.049 584.397 590.751 583.799 590.951 582.795C591.218 581.449 593.769 581.432 596.904 579.879C599.114 578.783 600.491 577.481 601.676 576.361C602.033 576.023 607.34 570.94 606.182 568.988Z" fill="#9E2626"/>
<path d="M515.837 603.026C514.865 603.03 514.55 605.329 513.697 605.285C512.847 605.241 512.863 602.942 511.173 600.63C510.868 600.213 508.947 597.585 507.667 597.943C505.241 598.621 507.251 609.427 503.744 610.735C502.974 611.022 501.857 610.882 499.431 611.694C498.466 612.017 497.971 612.265 497.84 612.708C497.654 613.338 498.364 613.814 499.464 615.253C501.113 617.41 500.675 617.856 502.103 619.387C503.163 620.524 503.961 620.875 503.842 621.41C503.674 622.167 501.967 621.952 501.615 622.83C501.255 623.726 502.549 625.156 503.645 626.01C505.7 627.615 507.652 627.661 509.466 628.116C511.437 628.611 514.165 629.82 517.114 633.084L542.243 663.002C537.19 656.688 523.563 638.995 518.705 632.07C517.303 630.071 515.927 627.965 516.324 625.534C516.707 623.194 518.688 620.835 519.847 617.024C519.982 616.579 520.343 615.336 519.787 614.826C519.327 614.404 518.659 614.867 518.223 614.48C517.639 613.961 518.367 612.705 518.509 610.719C518.608 609.319 518.366 608.267 518.157 607.363C518.095 607.091 517.13 603.021 515.837 603.026H515.837Z" fill="#9E2626"/>
<path d="M535.216 607.373L534.63 602.152L534.898 601.757C536.135 599.926 536.766 598.139 536.773 596.443C536.775 596.173 536.762 595.903 536.749 595.628C536.699 594.539 536.636 593.186 537.342 591.607C537.738 590.728 538.851 588.691 540.523 588.943C540.973 589.006 541.314 589.213 541.573 589.455C541.61 589.394 541.649 589.334 541.691 589.268C542.212 588.474 542.624 588.134 543.022 587.806C543.327 587.554 543.642 587.294 544.137 586.679C544.354 586.409 544.523 586.172 544.665 585.973C545.098 585.371 545.663 584.652 546.659 584.665C547.724 584.715 548.281 585.595 548.651 586.177C549.311 587.216 549.61 587.965 549.808 588.461C549.879 588.643 549.961 588.847 550.003 588.91C550.346 589.414 553.135 588.943 554.185 588.771C556.545 588.378 558.587 588.038 559.429 589.525C560.032 590.589 559.584 591.996 558.058 593.818C557.582 594.385 557.076 594.817 556.627 595.154C556.999 595.376 557.332 595.717 557.467 596.251C557.785 597.516 556.697 598.784 554.233 600.025C553.622 600.335 552.798 600.748 551.644 600.947C551.1 601.041 550.611 601.063 550.192 601.076C550.183 601.318 550.127 601.58 549.979 601.85C549.546 602.644 548.646 603.022 547.289 602.931C545.795 602.853 544.566 602.568 543.481 602.319C542.534 602.102 541.718 601.918 541.077 601.961C539.889 602.057 538.973 603.007 537.898 604.24L535.216 607.373Z" fill="#9E2626"/>
<path d="M537.93 576.289L533.025 578.179L532.574 578.02C530.489 577.289 528.599 577.132 526.955 577.555C526.694 577.623 526.436 577.703 526.173 577.785C525.132 578.11 523.837 578.514 522.131 578.232C521.179 578.072 518.925 577.514 518.745 575.833C518.691 575.382 518.805 575 518.974 574.689C518.906 574.667 518.837 574.645 518.763 574.621C517.862 574.319 517.428 574.007 517.01 573.706C516.689 573.475 516.358 573.236 515.637 572.914C515.321 572.773 515.048 572.669 514.819 572.582C514.127 572.317 513.288 571.953 513.047 570.986C512.826 569.945 513.536 569.183 514.006 568.678C514.844 567.777 515.493 567.298 515.923 566.98C516.081 566.865 516.258 566.734 516.308 566.677C516.709 566.218 515.546 563.642 515.113 562.67C514.134 560.488 513.287 558.601 514.513 557.41C515.39 556.558 516.865 556.634 519.016 557.646C519.686 557.962 520.231 558.342 520.672 558.69C520.792 558.274 521.037 557.866 521.52 557.6C522.665 556.972 524.168 557.702 525.994 559.769C526.449 560.282 527.058 560.973 527.543 562.038C527.772 562.54 527.918 563.007 528.036 563.409C528.273 563.356 528.541 563.344 528.839 563.418C529.718 563.635 530.312 564.41 530.569 565.745C530.872 567.208 530.908 568.469 530.941 569.581C530.972 570.552 531.001 571.387 531.205 571.996C531.599 573.12 532.751 573.764 534.217 574.49L537.93 576.289Z" fill="#9E2626"/>
<path d="M535.216 560.908L534.63 555.687L534.898 555.291C536.135 553.461 536.766 551.674 536.773 549.977C536.775 549.708 536.762 549.438 536.749 549.163C536.699 548.074 536.636 546.72 537.342 545.142C537.738 544.262 538.851 542.226 540.523 542.478C540.973 542.541 541.314 542.747 541.573 542.989C541.61 542.929 541.649 542.868 541.691 542.803C542.212 542.009 542.624 541.668 543.022 541.341C543.327 541.089 543.642 540.829 544.137 540.214C544.354 539.944 544.523 539.707 544.665 539.508C545.098 538.905 545.663 538.187 546.659 538.2C547.724 538.25 548.281 539.13 548.651 539.712C549.311 540.751 549.61 541.499 549.808 541.996C549.879 542.178 549.961 542.382 550.003 542.445C550.346 542.949 553.135 542.478 554.185 542.306C556.545 541.913 558.587 541.573 559.429 543.06C560.032 544.124 559.584 545.53 558.058 547.353C557.582 547.92 557.076 548.351 556.627 548.689C556.999 548.911 557.332 549.251 557.467 549.786C557.785 551.051 556.697 552.319 554.233 553.559C553.622 553.87 552.798 554.283 551.644 554.482C551.1 554.575 550.611 554.598 550.192 554.611C550.183 554.853 550.127 555.115 549.979 555.385C549.546 556.179 548.646 556.557 547.289 556.466C545.795 556.388 544.566 556.103 543.481 555.854C542.534 555.637 541.718 555.453 541.077 555.496C539.889 555.591 538.973 556.542 537.898 557.774L535.216 560.908Z" fill="#9E2626"/>
<path d="M540.561 662.248L539.466 661.562L539.201 660.3L539.466 661.562L538.19 661.709C538.169 661.59 538.1 661.318 537.995 660.892C537.424 658.558 535.682 651.454 534.229 640.266C533.215 632.456 532.641 624.427 532.523 616.398C532.404 608.356 532.785 602.268 533.09 597.375C533.321 593.685 533.601 590.171 533.876 586.747C534.607 577.601 535.297 568.962 534.784 559.398C534.671 557.263 534.432 552.818 531.834 548.089C530.327 545.346 528.251 542.911 525.662 540.854L527.272 538.832C530.129 541.106 532.425 543.804 534.099 546.849C536.98 552.092 537.24 556.935 537.365 559.262C537.887 568.995 537.189 577.717 536.45 586.951C536.178 590.362 535.898 593.861 535.668 597.537C535.366 602.384 534.988 608.419 535.106 616.358C535.222 624.291 535.789 632.222 536.79 639.933C538.225 650.98 539.941 657.978 540.505 660.277C540.805 661.505 540.869 661.762 540.561 662.248Z" fill="#9E2626"/>
<path d="M520.925 544.956C520.819 544.956 520.712 544.953 520.603 544.946C518.404 544.827 516.367 543.511 514.548 541.036C513.695 539.871 513.259 538.542 512.389 535.893C512.254 535.485 511.598 533.412 511.199 530.561C510.938 528.698 510.971 527.919 511.34 527.231C511.75 526.465 512.414 525.93 513.161 525.57C513.128 525.323 513.154 525.068 513.261 524.809C513.702 523.732 514.872 523.873 515.505 523.941C515.826 523.982 516.225 524.035 516.657 524.012C517.335 523.979 517.7 523.778 518.252 523.475C518.781 523.185 519.438 522.825 520.413 522.625C522.335 522.225 523.946 522.769 524.477 522.948C527.271 523.878 528.648 526.049 530.242 528.562C530.56 529.066 531.651 530.902 532.371 533.417C532.891 535.232 532.818 536.039 532.661 536.639C532.344 537.872 531.593 538.578 529.687 540.136C527.697 541.767 526.698 542.583 525.84 543.08C523.844 544.232 522.59 544.956 520.925 544.956V544.956Z" fill="#9E2626"/>
<path d="M274.97 455.628C279.264 456.76 283.329 455.464 284.05 452.732C284.77 450.001 281.873 446.87 277.578 445.738C275.868 445.263 274.069 445.203 272.331 445.564L254.076 440.997L252.114 449.603L270.319 453.193C271.652 454.364 273.247 455.199 274.97 455.628Z" fill="white"/>
<path d="M174.635 413.725C174.635 413.725 170.927 420.836 176.066 424.344C181.205 427.851 224.001 444.107 224.001 444.107L266.501 453.35L268.035 443.028L229.341 430.675L197.073 408.988L174.635 413.725H174.635Z" fill="#4239DD"/>
<path d="M225.243 643.243L232.451 640.002L221.102 606.103L210.465 610.884L225.243 643.243Z" fill="white"/>
<path d="M256.812 646.41C257.388 647.613 257.001 648.997 255.946 649.501L241.799 656.266C241.799 656.266 237.729 651.339 230.9 651.646L234.339 659.833L227.04 663.323L221.766 650.037C221.766 650.037 216.518 644.089 218.889 638.633C221.259 633.176 218.209 635.236 218.209 635.236L215.992 626.513L227.641 622.535L233.706 634.994L244.998 644.839L254.703 644.96C255.567 644.971 256.396 645.541 256.812 646.41L256.812 646.41Z" fill="#4239DD"/>
<path d="M82.6123 625.741L89.0535 630.318L112.585 603.396L103.08 596.64L82.6123 625.741Z" fill="white"/>
<path d="M95.8361 654.562C95.0884 655.667 93.6976 656.032 92.7296 655.378L79.7371 646.599C79.7371 646.599 81.9335 640.599 78.2161 634.867L72.8858 641.97L66.1833 637.441L74.9878 626.177C74.9878 626.177 77.4708 618.646 83.3801 617.932C89.2894 617.217 85.9692 615.629 85.9692 615.629L92.3806 609.307L101.703 617.341L94.0128 628.868L91.2202 643.581L96.0216 652.011C96.4489 652.761 96.376 653.764 95.836 654.562L95.8361 654.562Z" fill="#4239DD"/>
<path d="M196.648 367.637H162.802V414.087H196.648V367.637Z" fill="#4239DD"/>
<path d="M189.047 394.187L170.67 388.727L167.193 398.158L166.697 455.733C166.697 455.733 193.02 449.777 198.98 459.704L200.967 441.836C200.967 441.836 207.424 432.901 201.96 421.486C196.497 410.07 191.346 404.923 191.346 404.923L187.06 402.625L189.047 394.187V394.187Z" fill="#2E2EFF"/>
<path d="M167.938 447.047L165.455 472.361L198.235 479.309C198.235 479.309 195.752 457.47 198.732 452.507L167.938 447.047Z" fill="white"/>
<path d="M200.222 478.813C200.222 478.813 179.362 463.426 161.481 469.383C161.481 469.383 140.373 482.536 151.3 505.367L134.661 544.826L97.4106 596.942L107.841 609.351L157.011 558.227L172.905 536.388L213.135 621.759L225.552 615.803L210.155 550.286L200.967 504.871L200.222 478.813H200.222Z" fill="#4239DD"/>
<path d="M151.548 508.097L126.714 500.156L150.555 434.142L148.071 398.902L169.104 392.973L180.852 445.062L151.548 508.097Z" fill="#4239DD"/>
<path d="M189.974 406.294L186.219 402.543L187.894 399.084C187.894 399.084 198.732 410.318 200.719 413.296C202.705 416.274 221.257 491.072 221.257 491.072L193.268 502.637L198.732 443.907L200.755 430.697C201.054 428.744 200.719 426.746 199.8 424.996L189.974 406.294Z" fill="#4239DD"/>
<path d="M180.839 389.492C189.934 389.492 197.308 382.124 197.308 373.034C197.308 363.944 189.934 356.575 180.839 356.575C171.743 356.575 164.369 363.944 164.369 373.034C164.369 382.124 171.743 389.492 180.839 389.492Z" fill="white"/>
<path d="M191.082 366.306C185.431 362.54 175.318 377.622 172.225 368.351C171.743 366.906 170.609 373.301 170.194 375.539C169.667 378.381 171 380.65 170.194 381.159C169.282 381.733 167.05 379.168 166.579 379.553C166.118 379.929 167.599 382.91 170.194 386.377C173.638 390.979 175.796 392.099 178.629 395.209C181.267 398.104 186.148 403.46 185.458 408.054C184.161 416.695 163.048 423.373 156.536 416.886C154.977 415.332 154.672 411.815 154.126 404.843C153.313 394.468 153.927 386.682 154.126 384.37C154.955 374.745 155.37 369.933 157.34 365.905C158.598 363.332 162.834 354.67 172.202 351.855C182.266 348.831 194.243 353.761 197.509 361.088C198.453 363.205 197.535 362.979 198.714 369.919C200.109 378.132 201.012 383.061 204.739 385.976C208.164 388.654 210.807 387.157 211.97 389.187C214.987 394.454 200.985 411.117 195.099 408.857C191.552 407.495 191.238 399.374 191.483 395.61C192.011 387.506 196.03 385.786 195.902 378.349C195.868 376.381 195.749 369.417 191.082 366.306V366.306Z" fill="#4239DD"/>
<path d="M119.331 503.84C118.631 508.223 120.328 512.136 123.119 512.58C125.91 513.024 128.739 509.832 129.437 505.447C129.741 503.7 129.621 501.905 129.088 500.213L131.816 481.606L123.051 480.513L121.292 498.972C120.259 500.415 119.586 502.084 119.331 503.84H119.331Z" fill="white"/>
<path d="M151.051 399.895C151.051 399.895 143.601 396.917 140.621 402.377C137.641 407.836 125.721 452.011 125.721 452.011L120.754 495.192L131.185 495.689L139.628 455.981L158.005 421.734L151.051 399.895V399.895Z" fill="#4239DD"/>
<path d="M625 663.135C625 663.613 624.612 664 624.134 664H24V662.269H624.134C624.612 662.269 625 662.657 625 663.135V663.135Z" fill="#E6E6E6"/>
</g>
<defs>
<clipPath id="clip0_324_3">
<rect width="601" height="444" fill="white" transform="translate(24 220)"/>
</clipPath>
</defs>
</svg>
