<svg width="1519" height="533" viewBox="0 0 1519 533" fill="none" xmlns="http://www.w3.org/2000/svg">
<rect x="0.5" y="0.5" width="1508.51" height="480" fill="#4CA35B" stroke="black"/>
<rect x="420.043" y="64.5" width="843.357" height="379" fill="#EBDFC5" stroke="black"/>
<rect x="537.052" y="20.5" width="571.392" height="343" fill="#E8E862" stroke="black"/>
<path d="M613.588 332.95C597.588 332.95 585.338 328.75 576.838 320.35C568.438 311.85 564.238 298.75 564.238 281.05C564.238 263.85 568.288 250.85 576.388 242.05C584.488 233.15 596.888 228.7 613.588 228.7C618.888 228.7 624.238 229.35 629.638 230.65C635.038 231.95 640.288 233.75 645.388 236.05V257.2C640.188 253.8 635.188 251.35 630.388 249.85C625.588 248.35 621.088 247.6 616.888 247.6C610.988 247.6 605.988 248.65 601.888 250.75C597.888 252.85 594.788 256.35 592.588 261.25C590.488 266.15 589.438 272.75 589.438 281.05C589.438 289.35 590.488 295.9 592.588 300.7C594.788 305.5 597.988 308.95 602.188 311.05C606.488 313.05 611.738 314.05 617.938 314.05C621.638 314.05 625.838 313.35 630.538 311.95C635.238 310.55 640.188 308.15 645.388 304.75V325.9C642.588 327.3 639.388 328.55 635.788 329.65C632.288 330.65 628.588 331.45 624.688 332.05C620.888 332.65 617.188 332.95 613.588 332.95ZM708.371 333.1C698.471 333.1 689.871 331.25 682.571 327.55C675.271 323.75 669.571 318 665.471 310.3C661.471 302.6 659.471 292.85 659.471 281.05C659.471 263.95 663.771 251 672.371 242.2C680.971 233.4 692.971 229 708.371 229C718.271 229 726.871 230.9 734.171 234.7C741.571 238.4 747.271 244.05 751.271 251.65C755.271 259.25 757.271 269 757.271 280.9C757.271 298.1 752.971 311.1 744.371 319.9C735.871 328.7 723.871 333.1 708.371 333.1ZM708.371 313.15C713.471 313.15 717.771 312.1 721.271 310C724.871 307.9 727.571 304.5 729.371 299.8C731.271 295 732.221 288.7 732.221 280.9C732.221 273 731.271 266.7 729.371 262C727.571 257.3 724.871 253.95 721.271 251.95C717.771 249.85 713.471 248.8 708.371 248.8C703.271 248.8 698.971 249.85 695.471 251.95C691.971 254.05 689.271 257.45 687.371 262.15C685.571 266.85 684.671 273.2 684.671 281.2C684.671 289.1 685.571 295.4 687.371 300.1C689.271 304.7 691.971 308.05 695.471 310.15C698.971 312.15 703.271 313.15 708.371 313.15ZM774.416 331V230.95H814.616C831.616 230.95 844.116 235.2 852.116 243.7C860.116 252.1 864.116 264.55 864.116 281.05C864.116 297.45 860.116 309.9 852.116 318.4C844.116 326.8 831.616 331 814.616 331H774.416ZM798.716 312.25H811.766C820.766 312.25 827.566 309.75 832.166 304.75C836.866 299.75 839.216 291.85 839.216 281.05C839.216 270.05 836.866 262.1 832.166 257.2C827.566 252.2 820.766 249.7 811.766 249.7H798.716V312.25ZM881.057 331V230.95H949.607V249.7H905.357V271.45H943.757V290.35H905.357V312.25H949.607V331H881.057ZM964.723 347.8L975.523 316.3H996.223L980.323 347.8H964.723ZM975.073 283.15V262H996.823V283.15H975.073Z" fill="black"/>
<path d="M576.838 320.35L576.127 321.053L576.135 321.061L576.838 320.35ZM576.388 242.05L577.124 242.727L577.128 242.723L576.388 242.05ZM645.388 236.05H646.388V235.404L645.799 235.138L645.388 236.05ZM645.388 257.2L644.841 258.037L646.388 259.049V257.2H645.388ZM630.388 249.85L630.09 250.804L630.388 249.85ZM601.888 250.75L601.432 249.86L601.424 249.865L601.888 250.75ZM592.588 261.25L591.676 260.84L591.673 260.848L591.669 260.856L592.588 261.25ZM592.588 300.7L591.672 301.101L591.676 301.109L591.679 301.117L592.588 300.7ZM602.188 311.05L601.741 311.944L601.754 311.951L601.767 311.957L602.188 311.05ZM630.538 311.95L630.824 312.908L630.538 311.95ZM645.388 304.75H646.388V302.901L644.841 303.913L645.388 304.75ZM645.388 325.9L645.836 326.794L646.388 326.518V325.9H645.388ZM635.788 329.65L636.063 330.612L636.072 330.609L636.081 330.606L635.788 329.65ZM624.688 332.05L624.536 331.062L624.532 331.062L624.688 332.05ZM613.588 331.95C597.76 331.95 585.798 327.798 577.541 319.639L576.135 321.061C584.879 329.702 597.417 333.95 613.588 333.95V331.95ZM577.55 319.647C569.407 311.408 565.238 298.612 565.238 281.05H563.238C563.238 298.888 567.469 312.292 576.127 321.053L577.55 319.647ZM565.238 281.05C565.238 263.992 569.256 251.276 577.124 242.727L575.653 241.373C567.321 250.424 563.238 263.708 563.238 281.05H565.238ZM577.128 242.723C584.974 234.102 597.057 229.7 613.588 229.7V227.7C596.72 227.7 584.003 232.198 575.649 241.377L577.128 242.723ZM613.588 229.7C618.806 229.7 624.077 230.34 629.404 231.622L629.872 229.678C624.399 228.36 618.971 227.7 613.588 227.7V229.7ZM629.404 231.622C634.743 232.907 639.934 234.687 644.977 236.962L645.799 235.138C640.643 232.813 635.334 230.993 629.872 229.678L629.404 231.622ZM644.388 236.05V257.2H646.388V236.05H644.388ZM645.936 256.363C640.676 252.924 635.592 250.429 630.687 248.896L630.09 250.804C634.784 252.271 639.701 254.676 644.841 258.037L645.936 256.363ZM630.687 248.896C625.809 247.371 621.207 246.6 616.888 246.6V248.6C620.97 248.6 625.368 249.329 630.09 250.804L630.687 248.896ZM616.888 246.6C610.873 246.6 605.708 247.67 601.432 249.86L602.344 251.64C606.269 249.63 611.104 248.6 616.888 248.6V246.6ZM601.424 249.865C597.19 252.087 593.95 255.776 591.676 260.84L593.501 261.66C595.627 256.924 598.587 253.613 602.353 251.635L601.424 249.865ZM591.669 260.856C589.495 265.93 588.438 272.682 588.438 281.05H590.438C590.438 272.818 591.482 266.37 593.507 261.644L591.669 260.856ZM588.438 281.05C588.438 289.416 589.494 296.122 591.672 301.101L593.505 300.299C591.483 295.678 590.438 289.284 590.438 281.05H588.438ZM591.679 301.117C593.962 306.097 597.312 309.73 601.741 311.944L602.636 310.156C598.665 308.17 595.615 304.903 593.497 300.283L591.679 301.117ZM601.767 311.957C606.233 314.034 611.636 315.05 617.938 315.05V313.05C611.841 313.05 606.744 312.066 602.61 310.143L601.767 311.957ZM617.938 315.05C621.761 315.05 626.059 314.328 630.824 312.908L630.253 310.992C625.617 312.372 621.516 313.05 617.938 313.05V315.05ZM630.824 312.908C635.637 311.475 640.675 309.026 645.936 305.587L644.841 303.913C639.702 307.274 634.839 309.625 630.253 310.992L630.824 312.908ZM644.388 304.75V325.9H646.388V304.75H644.388ZM644.941 325.006C642.2 326.376 639.053 327.607 635.496 328.694L636.081 330.606C639.724 329.493 642.977 328.224 645.836 326.794L644.941 325.006ZM635.514 328.688C632.057 329.676 628.398 330.467 624.536 331.062L624.84 333.038C628.778 332.433 632.52 331.624 636.063 330.612L635.514 328.688ZM624.532 331.062C620.78 331.655 617.133 331.95 613.588 331.95V333.95C617.244 333.95 620.996 333.645 624.844 333.038L624.532 331.062ZM682.571 327.55L682.109 328.437L682.119 328.442L682.571 327.55ZM665.471 310.3L664.583 310.761L664.588 310.77L665.471 310.3ZM672.371 242.2L671.656 241.501L672.371 242.2ZM734.171 234.7L733.709 235.587L733.716 235.591L733.724 235.594L734.171 234.7ZM751.271 251.65L752.156 251.184L751.271 251.65ZM744.371 319.9L743.656 319.201L743.652 319.205L744.371 319.9ZM721.271 310L720.767 309.136L720.756 309.143L721.271 310ZM729.371 299.8L728.441 299.432L728.437 299.442L729.371 299.8ZM729.371 262L728.437 262.358L728.44 262.366L728.444 262.375L729.371 262ZM721.271 251.95L720.756 252.807L720.771 252.816L720.785 252.824L721.271 251.95ZM695.471 251.95L695.985 252.807V252.807L695.471 251.95ZM687.371 262.15L686.444 261.775L686.44 261.784L686.437 261.792L687.371 262.15ZM687.371 300.1L686.437 300.458L686.442 300.47L686.447 300.482L687.371 300.1ZM695.471 310.15L694.956 311.007L694.965 311.013L694.975 311.018L695.471 310.15ZM708.371 332.1C698.595 332.1 690.156 330.274 683.023 326.658L682.119 328.442C689.585 332.226 698.346 334.1 708.371 334.1V332.1ZM683.033 326.663C675.923 322.962 670.365 317.363 666.353 309.83L664.588 310.77C668.777 318.637 674.619 324.538 682.109 328.437L683.033 326.663ZM666.358 309.839C662.454 302.323 660.471 292.745 660.471 281.05H658.471C658.471 292.955 660.488 302.877 664.583 310.761L666.358 309.839ZM660.471 281.05C660.471 264.108 664.73 251.449 673.086 242.899L671.656 241.501C662.812 250.551 658.471 263.792 658.471 281.05H660.471ZM673.086 242.899C681.453 234.337 693.168 230 708.371 230V228C692.773 228 680.489 232.463 671.656 241.501L673.086 242.899ZM708.371 230C718.142 230 726.578 231.875 733.709 235.587L734.633 233.813C727.164 229.925 718.399 228 708.371 228V230ZM733.724 235.594C740.929 239.197 746.479 244.693 750.386 252.116L752.156 251.184C748.062 243.407 742.213 237.603 734.618 233.806L733.724 235.594ZM750.386 252.116C754.287 259.528 756.271 269.103 756.271 280.9H758.271C758.271 268.897 756.255 258.972 752.156 251.184L750.386 252.116ZM756.271 280.9C756.271 297.944 752.011 310.652 743.656 319.201L745.086 320.599C753.931 311.548 758.271 298.256 758.271 280.9H756.271ZM743.652 319.205C735.387 327.761 723.676 332.1 708.371 332.1V334.1C724.065 334.1 736.354 329.639 745.09 320.595L743.652 319.205ZM708.371 314.15C713.607 314.15 718.095 313.071 721.785 310.857L720.756 309.143C717.446 311.129 713.334 312.15 708.371 312.15V314.15ZM721.775 310.864C725.61 308.627 728.441 305.025 730.305 300.158L728.437 299.442C726.701 303.975 724.132 307.173 720.767 309.136L721.775 310.864ZM730.301 300.168C732.264 295.207 733.221 288.768 733.221 280.9H731.221C731.221 288.632 730.277 294.793 728.441 299.432L730.301 300.168ZM733.221 280.9C733.221 272.935 732.265 266.492 730.298 261.625L728.444 262.375C730.276 266.908 731.221 273.065 731.221 280.9H733.221ZM730.305 261.642C728.44 256.773 725.605 253.214 721.756 251.076L720.785 252.824C724.137 254.686 726.702 257.827 728.437 262.358L730.305 261.642ZM721.785 251.093C718.095 248.879 713.607 247.8 708.371 247.8V249.8C713.334 249.8 717.446 250.821 720.756 252.807L721.785 251.093ZM708.371 247.8C703.134 247.8 698.646 248.879 694.956 251.093L695.985 252.807C699.295 250.821 703.407 249.8 708.371 249.8V247.8ZM694.956 251.093C691.229 253.329 688.405 256.923 686.444 261.775L688.298 262.525C690.137 257.977 692.713 254.771 695.985 252.807L694.956 251.093ZM686.437 261.792C684.575 266.654 683.671 273.141 683.671 281.2H685.671C685.671 273.259 686.566 267.046 688.305 262.508L686.437 261.792ZM683.671 281.2C683.671 289.161 684.576 295.597 686.437 300.458L688.305 299.742C686.566 295.203 685.671 289.039 685.671 281.2H683.671ZM686.447 300.482C688.41 305.236 691.235 308.775 694.956 311.007L695.985 309.293C692.707 307.325 690.131 304.164 688.295 299.718L686.447 300.482ZM694.975 311.018C698.661 313.125 703.142 314.15 708.371 314.15V312.15C703.399 312.15 699.281 311.175 695.967 309.282L694.975 311.018ZM774.416 331H773.416V332H774.416V331ZM774.416 230.95V229.95H773.416V230.95H774.416ZM852.116 243.7L851.388 244.385L851.392 244.39L852.116 243.7ZM852.116 318.4L852.841 319.09L852.845 319.085L852.116 318.4ZM798.716 312.25H797.716V313.25H798.716V312.25ZM832.166 304.75L831.438 304.065L831.431 304.073L832.166 304.75ZM832.166 257.2L831.431 257.877L831.438 257.885L831.445 257.892L832.166 257.2ZM798.716 249.7V248.7H797.716V249.7H798.716ZM775.416 331V230.95H773.416V331H775.416ZM774.416 231.95H814.616V229.95H774.416V231.95ZM814.616 231.95C831.468 231.95 843.65 236.163 851.388 244.385L852.845 243.015C844.583 234.237 831.765 229.95 814.616 229.95V231.95ZM851.392 244.39C859.152 252.538 863.116 264.698 863.116 281.05H865.116C865.116 264.402 861.081 251.662 852.841 243.01L851.392 244.39ZM863.116 281.05C863.116 297.299 859.154 309.464 851.388 317.715L852.845 319.085C861.079 310.336 865.116 297.601 865.116 281.05H863.116ZM851.392 317.71C843.654 325.835 831.471 330 814.616 330V332C831.762 332 844.579 327.765 852.841 319.09L851.392 317.71ZM814.616 330H774.416V332H814.616V330ZM798.716 313.25H811.766V311.25H798.716V313.25ZM811.766 313.25C820.951 313.25 828.057 310.694 832.902 305.427L831.431 304.073C827.076 308.806 820.582 311.25 811.766 311.25V313.25ZM832.895 305.435C837.846 300.168 840.216 291.964 840.216 281.05H838.216C838.216 291.736 835.887 299.332 831.438 304.065L832.895 305.435ZM840.216 281.05C840.216 269.944 837.85 261.681 832.888 256.508L831.445 257.892C835.883 262.519 838.216 270.156 838.216 281.05H840.216ZM832.902 256.523C828.057 251.256 820.951 248.7 811.766 248.7V250.7C820.582 250.7 827.076 253.144 831.431 257.877L832.902 256.523ZM811.766 248.7H798.716V250.7H811.766V248.7ZM797.716 249.7V312.25H799.716V249.7H797.716ZM881.057 331H880.057V332H881.057V331ZM881.057 230.95V229.95H880.057V230.95H881.057ZM949.607 230.95H950.607V229.95H949.607V230.95ZM949.607 249.7V250.7H950.607V249.7H949.607ZM905.357 249.7V248.7H904.357V249.7H905.357ZM905.357 271.45H904.357V272.45H905.357V271.45ZM943.757 271.45H944.757V270.45H943.757V271.45ZM943.757 290.35V291.35H944.757V290.35H943.757ZM905.357 290.35V289.35H904.357V290.35H905.357ZM905.357 312.25H904.357V313.25H905.357V312.25ZM949.607 312.25H950.607V311.25H949.607V312.25ZM949.607 331V332H950.607V331H949.607ZM882.057 331V230.95H880.057V331H882.057ZM881.057 231.95H949.607V229.95H881.057V231.95ZM948.607 230.95V249.7H950.607V230.95H948.607ZM949.607 248.7H905.357V250.7H949.607V248.7ZM904.357 249.7V271.45H906.357V249.7H904.357ZM905.357 272.45H943.757V270.45H905.357V272.45ZM942.757 271.45V290.35H944.757V271.45H942.757ZM943.757 289.35H905.357V291.35H943.757V289.35ZM904.357 290.35V312.25H906.357V290.35H904.357ZM905.357 313.25H949.607V311.25H905.357V313.25ZM948.607 312.25V331H950.607V312.25H948.607ZM949.607 330H881.057V332H949.607V330ZM964.723 347.8L963.777 347.476L963.323 348.8H964.723V347.8ZM975.523 316.3V315.3H974.809L974.577 315.976L975.523 316.3ZM996.223 316.3L997.116 316.751L997.848 315.3H996.223V316.3ZM980.323 347.8V348.8H980.939L981.216 348.251L980.323 347.8ZM975.073 283.15H974.073V284.15H975.073V283.15ZM975.073 262V261H974.073V262H975.073ZM996.823 262H997.823V261H996.823V262ZM996.823 283.15V284.15H997.823V283.15H996.823ZM965.669 348.124L976.469 316.624L974.577 315.976L963.777 347.476L965.669 348.124ZM975.523 317.3H996.223V315.3H975.523V317.3ZM995.33 315.849L979.43 347.349L981.216 348.251L997.116 316.751L995.33 315.849ZM980.323 346.8H964.723V348.8H980.323V346.8ZM976.073 283.15V262H974.073V283.15H976.073ZM975.073 263H996.823V261H975.073V263ZM995.823 262V283.15H997.823V262H995.823ZM996.823 282.15H975.073V284.15H996.823V282.15Z" fill="black"/>
<rect x="41.6111" y="231.5" width="554.526" height="217" fill="#F093ED" stroke="black"/>
<path d="M136.989 255.628C141.282 243.743 158.091 243.743 162.384 255.628L167.741 270.462C170.633 278.468 179.767 282.273 187.487 278.687L202.243 271.833C213.91 266.414 225.827 278.837 219.926 290.268L214.064 301.627C209.962 309.574 213.962 319.303 222.467 322.067L235.063 326.161C247.499 330.203 247.499 347.797 235.063 351.839L222.467 355.933C213.962 358.697 209.962 368.426 214.064 376.373L219.926 387.732C225.827 399.163 213.91 411.586 202.243 406.167L187.487 399.313C179.767 395.727 170.633 399.532 167.741 407.538L162.384 422.372C158.091 434.257 141.282 434.257 136.989 422.372L131.632 407.538C128.74 399.532 119.606 395.727 111.886 399.313L97.1298 406.167C85.4624 411.586 73.5462 399.163 79.4464 387.732L85.3089 376.373C89.4105 368.426 85.4109 358.697 76.9059 355.933L64.3096 351.839C51.8735 347.797 51.8735 330.203 64.3096 326.161L76.9059 322.067C85.4109 319.303 89.4105 309.574 85.3089 301.627L79.4464 290.268C73.5462 278.837 85.4624 266.414 97.1298 271.833L111.886 278.687C119.606 282.273 128.74 278.468 131.632 270.462L136.989 255.628Z" fill="#E54036" stroke="black"/>
<rect x="39.5027" y="28.5" width="318.401" height="137" fill="#F093ED" stroke="black"/>
<rect x="132.266" y="76.5" width="376.378" height="238" fill="#F5BD41" stroke="black"/>
<path d="M420.098 195C420.098 247.166 375.511 289.5 320.455 289.5C265.399 289.5 220.813 247.166 220.813 195C220.813 142.834 265.399 100.5 320.455 100.5C375.511 100.5 420.098 142.834 420.098 195Z" fill="#E54036" stroke="black"/>
<path d="M235.625 264.5C235.625 277.73 224.311 288.5 210.299 288.5C196.286 288.5 184.973 277.73 184.973 264.5C184.973 251.27 196.286 240.5 210.299 240.5C224.311 240.5 235.625 251.27 235.625 264.5Z" fill="#E54036" stroke="black"/>
<path d="M463.317 264.5C463.317 277.73 452.003 288.5 437.991 288.5C423.978 288.5 412.665 277.73 412.665 264.5C412.665 251.27 423.978 240.5 437.991 240.5C452.003 240.5 463.317 251.27 463.317 264.5Z" fill="#E54036" stroke="black"/>
<rect x="0.627004" y="0.34759" width="32.604" height="111.471" transform="matrix(0.965026 -0.262154 0.288981 0.957335 144.337 116.989)" fill="#E54036" stroke="black"/>
<rect x="-0.627004" y="0.34759" width="32.604" height="111.471" transform="matrix(-0.965026 -0.262154 -0.288981 0.957335 494.938 116.66)" fill="#E54036" stroke="black"/>
<path d="M292.548 153C292.548 158.222 288.077 162.5 282.507 162.5C276.936 162.5 272.465 158.222 272.465 153C272.465 147.778 276.936 143.5 282.507 143.5C288.077 143.5 292.548 147.778 292.548 153Z" fill="#1C1B37" stroke="black"/>
<path d="M357.904 153C357.904 158.222 353.433 162.5 347.863 162.5C342.292 162.5 337.821 158.222 337.821 153C337.821 147.778 342.292 143.5 347.863 143.5C353.433 143.5 357.904 147.778 357.904 153Z" fill="#1C1B37" stroke="black"/>
<path d="M364.229 228C364.229 250.895 344.656 269.5 320.455 269.5C296.255 269.5 276.682 250.895 276.682 228C276.682 205.105 296.255 186.5 320.455 186.5C344.656 186.5 364.229 205.105 364.229 228Z" fill="#1C1B37" stroke="black"/>
<path d="M436.091 346.332C443.688 333.849 461.809 333.849 469.406 346.332L531.958 449.112C539.867 462.107 530.513 478.75 515.301 478.75H390.196C374.984 478.75 365.63 462.107 373.539 449.112L436.091 346.332Z" fill="#F5BD41" stroke="black"/>
<path d="M605.806 346.332C613.403 333.849 631.524 333.849 639.121 346.332L701.673 449.112C709.582 462.107 700.228 478.75 685.015 478.75H559.911C544.699 478.75 535.345 462.107 543.253 449.112L605.806 346.332Z" fill="#F5BD41" stroke="black"/>
<path d="M788.17 343.332C795.767 330.849 813.888 330.849 821.485 343.332L884.037 446.112C891.946 459.107 882.592 475.75 867.38 475.75H742.275C727.063 475.75 717.709 459.107 725.618 446.112L788.17 343.332Z" fill="#F5BD41" stroke="black"/>
<rect x="-0.627004" y="0.34759" width="24.1623" height="57.2624" transform="matrix(-0.965026 -0.262154 -0.288981 0.957335 461.631 368.85)" fill="#E54036" stroke="black"/>
<path d="M458.046 444C458.046 451.984 451.216 458.5 442.734 458.5C434.253 458.5 427.422 451.984 427.422 444C427.422 436.016 434.253 429.5 442.734 429.5C451.216 429.5 458.046 436.016 458.046 444Z" fill="#E54036" stroke="black"/>
<rect x="-0.359116" y="0.598859" width="24.1838" height="57.2078" transform="matrix(-0.97302 0.230721 0.254787 0.966997 631.616 362.103)" fill="#E54036" stroke="black"/>
<path d="M640.978 442.223C645.196 449.15 642.705 458.03 635.374 462.047C628.044 466.064 618.69 463.675 614.472 456.748C610.254 449.821 612.746 440.941 620.076 436.924C627.407 432.907 636.76 435.296 640.978 442.223Z" fill="#E54036" stroke="black"/>
<rect x="-0.492286" y="0.506841" width="24.2579" height="57.0191" transform="matrix(-0.999905 0.0137994 0.0153334 0.999882 816.777 362.007)" fill="#E54036" stroke="black"/>
<path d="M819.691 442.309C822.127 449.957 817.572 458.067 809.458 460.392C801.344 462.718 792.816 458.359 790.38 450.711C787.944 443.063 792.5 434.954 800.614 432.628C808.728 430.302 817.255 434.662 819.691 442.309Z" fill="#E54036" stroke="black"/>
<path d="M1133.92 125.332C1141.52 112.849 1159.64 112.849 1167.24 125.332L1229.79 228.112C1237.7 241.107 1228.35 257.75 1213.13 257.75H1088.03C1072.82 257.75 1063.46 241.107 1071.37 228.112L1133.92 125.332Z" fill="#F5BD41" stroke="black"/>
<rect x="-0.492286" y="0.506841" width="24.2579" height="57.0191" transform="matrix(-0.999905 0.0137994 0.0153334 0.999882 1162.53 144.007)" fill="#E54036" stroke="black"/>
<path d="M1165.45 224.309C1167.88 231.957 1163.33 240.067 1155.21 242.392C1147.1 244.718 1138.57 240.359 1136.13 232.711C1133.7 225.063 1138.25 216.954 1146.37 214.628C1154.48 212.302 1163.01 216.662 1165.45 224.309Z" fill="#E54036" stroke="black"/>
<path d="M1261.47 204.332C1269.07 191.849 1287.19 191.849 1294.79 204.332L1357.34 307.112C1365.25 320.107 1355.9 336.75 1340.68 336.75H1215.58C1200.37 336.75 1191.01 320.107 1198.92 307.112L1261.47 204.332Z" fill="#F5BD41" stroke="black"/>
<rect x="-0.492286" y="0.506841" width="24.2579" height="57.0191" transform="matrix(-0.999905 0.0137994 0.0153334 0.999882 1290.08 223.007)" fill="#E54036" stroke="black"/>
<path d="M1293 303.309C1295.43 310.957 1290.88 319.067 1282.76 321.392C1274.65 323.718 1266.12 319.359 1263.68 311.711C1261.25 304.063 1265.8 295.954 1273.92 293.628C1282.03 291.302 1290.56 295.662 1293 303.309Z" fill="#E54036" stroke="black"/>
<path d="M1389.02 285.332C1396.62 272.849 1414.74 272.849 1422.34 285.332L1484.89 388.112C1492.8 401.107 1483.45 417.75 1468.23 417.75H1343.13C1327.92 417.75 1318.56 401.107 1326.47 388.112L1389.02 285.332Z" fill="#F5BD41" stroke="black"/>
<rect x="-0.492286" y="0.506841" width="24.2579" height="57.0191" transform="matrix(-0.999905 0.0137994 0.0153334 0.999882 1417.63 304.007)" fill="#E54036" stroke="black"/>
<path d="M1420.54 384.309C1422.98 391.957 1418.43 400.067 1410.31 402.392C1402.2 404.718 1393.67 400.359 1391.23 392.711C1388.8 385.063 1393.35 376.954 1401.47 374.628C1409.58 372.302 1418.11 376.662 1420.54 384.309Z" fill="#E54036" stroke="black"/>
<path d="M300.208 334.839C304.383 324.075 319.661 324.075 323.837 334.839C326.618 342.009 334.809 345.458 341.87 342.405L346.003 340.618C355.663 336.44 365.126 346.879 360.023 356.084C356.308 362.785 359.73 371.207 367.063 373.426C377.522 376.591 377.522 391.409 367.063 394.574C359.73 396.793 356.308 405.215 360.023 411.916C365.126 421.121 355.663 431.56 346.003 427.382L341.87 425.595C334.809 422.542 326.618 425.991 323.837 433.161C319.661 443.925 304.383 443.925 300.208 433.161C297.426 425.991 289.235 422.542 282.174 425.595L278.041 427.382C268.382 431.56 258.919 421.121 264.021 411.916C267.736 405.215 264.315 396.793 256.981 394.574C246.522 391.409 246.522 376.591 256.981 373.426C264.315 371.207 267.736 362.785 264.021 356.084C258.919 346.879 268.382 336.44 278.041 340.618L282.174 342.405C289.235 345.458 297.426 342.009 300.208 334.839Z" fill="#E54036" stroke="black"/>
<path d="M1119.27 343.839C1123.44 333.075 1138.72 333.075 1142.9 343.839C1145.68 351.009 1153.87 354.458 1160.93 351.405L1165.06 349.618C1174.72 345.44 1184.18 355.879 1179.08 365.084C1175.37 371.785 1178.79 380.207 1186.12 382.426C1196.58 385.591 1196.58 400.409 1186.12 403.574C1178.79 405.793 1175.37 414.215 1179.08 420.916C1184.18 430.121 1174.72 440.56 1165.06 436.382L1160.93 434.595C1153.87 431.542 1145.68 434.991 1142.9 442.161C1138.72 452.925 1123.44 452.925 1119.27 442.161C1116.48 434.991 1108.29 431.542 1101.23 434.595L1097.1 436.382C1087.44 440.56 1077.98 430.121 1083.08 420.916C1086.79 414.215 1083.37 405.793 1076.04 403.574C1065.58 400.409 1065.58 385.591 1076.04 382.426C1083.37 380.207 1086.79 371.785 1083.08 365.084C1077.98 355.879 1087.44 345.44 1097.1 349.618L1101.23 351.405C1108.29 354.458 1116.48 351.009 1119.27 343.839Z" fill="#E54036" stroke="black"/>
<path d="M589.812 49C589.812 56.9836 582.982 63.5 574.5 63.5C566.019 63.5 559.188 56.9836 559.188 49C559.188 41.0164 566.019 34.5 574.5 34.5C582.982 34.5 589.812 41.0164 589.812 49Z" fill="#F093ED" stroke="black"/>
<path d="M637.248 49C637.248 56.9836 630.418 63.5 621.936 63.5C613.454 63.5 606.624 56.9836 606.624 49C606.624 41.0164 613.454 34.5 621.936 34.5C630.418 34.5 637.248 41.0164 637.248 49Z" fill="#E54036" stroke="black"/>
<path d="M684.684 49C684.684 56.9836 677.854 63.5 669.372 63.5C660.89 63.5 654.06 56.9836 654.06 49C654.06 41.0164 660.89 34.5 669.372 34.5C677.854 34.5 684.684 41.0164 684.684 49Z" fill="#F093ED" stroke="black"/>
<rect x="558.134" y="80.5" width="471.25" height="105" fill="#EC8B7C" stroke="black"/>
<rect x="796.367" y="11.5" width="272.019" height="151" rx="19.5" fill="#E54036" stroke="black"/>
<path d="M932.904 21.3759L951.514 69.0856L951.597 69.2996L951.814 69.3757L1002.02 87L951.814 104.624L951.597 104.7L951.514 104.914L932.904 152.624L914.294 104.914L914.211 104.7L913.994 104.624L863.787 87L913.994 69.3757L914.211 69.2996L914.294 69.0856L932.904 21.3759Z" fill="#E8E862" stroke="black"/>
<path d="M668.381 82.8345C672.838 71.3434 689.097 71.3434 693.554 82.8345L696.787 91.1701C699.761 98.839 708.512 102.501 716.062 99.2353L724.68 95.5077C736.507 90.3924 748.094 103.173 741.847 114.443L740.951 116.061C736.472 124.141 740.59 134.292 749.432 136.968L751.45 137.579C764.235 141.449 764.235 159.551 751.45 163.421L749.432 164.032C740.59 166.708 736.472 176.859 740.951 184.939L741.847 186.557C748.094 197.827 736.507 210.608 724.68 205.492L716.062 201.765C708.512 198.499 699.761 202.161 696.787 209.83L693.554 218.165C689.097 229.657 672.838 229.657 668.381 218.165L665.148 209.83C662.174 202.161 653.423 198.499 645.873 201.765L637.255 205.492C625.428 210.608 613.841 197.827 620.088 186.557L620.984 184.939C625.463 176.859 621.344 166.708 612.503 164.032L610.485 163.421C597.7 159.551 597.7 141.449 610.485 137.579L612.503 136.968C621.344 134.292 625.463 124.141 620.984 116.061L620.088 114.443C613.841 103.173 625.428 90.3924 637.255 95.5077L645.873 99.2353C653.423 102.501 662.174 98.839 665.148 91.1701L668.381 82.8345Z" fill="#554EE3" stroke="black"/>
<rect x="1262.29" y="71.5" width="72.789" height="62.6667" fill="#E8E862" stroke="black"/>
<rect x="1262.29" y="135.167" width="72.789" height="62.6667" fill="#554EE3" stroke="black"/>
<rect x="1369.81" y="99.5" width="72.789" height="62.6667" fill="#E54036" stroke="black"/>
<rect x="1262.29" y="198.833" width="72.789" height="62.6667" fill="#E54036" stroke="black"/>
<rect x="1165.31" y="32.5" width="72.789" height="62.6667" fill="#F5BD41" stroke="black"/>
<rect x="1377.19" y="198.5" width="72.789" height="62.6667" fill="#554EE3" stroke="black"/>
<rect x="1336.08" y="7.5" width="72.789" height="62.6667" fill="#554EE3" stroke="black"/>
</svg>
