<svg width="644" height="913" viewBox="0 0 644 913" fill="none" xmlns="http://www.w3.org/2000/svg">
<rect width="644" height="913" fill="#EF8E67"/>
<g clip-path="url(#clip0_327_4)">
<path d="M46.8218 540.264H7.59045V500.945C7.59045 493.932 13.3161 488.193 20.3141 488.193H58.4851V528.575C58.4851 535.02 53.253 540.264 46.8218 540.264Z" fill="#9655FF"/>
<path d="M583.337 160.892H544.105V121.573C544.105 114.559 549.831 108.821 556.829 108.821H595V149.202C595 155.648 589.768 160.892 583.337 160.892Z" fill="#9655FF"/>
<path d="M308.443 777.234L294.312 777.233L287.59 722.607L308.446 722.608L308.443 777.234Z" fill="#A0616A"/>
<path d="M308.94 792.008L265.486 792.006V791.456C265.487 782.094 273.059 774.505 282.4 774.505H282.401L290.338 768.47L305.148 774.506L308.941 774.506L308.94 792.008V792.008Z" fill="#2F2E41"/>
<path d="M299.488 495.303L290.162 527.754C290.162 527.754 270.016 633.951 275.318 648.828C280.619 663.706 284.527 757.29 284.527 757.29H312.111C312.111 757.29 315.826 733.549 315.718 729.976C315.609 726.403 321.971 669.019 313.489 660.518L350.6 567.003L408.916 518.12L386.049 489.672L299.488 495.303L299.488 495.303Z" fill="#2F2E41"/>
<path opacity="0.5" d="M434.364 547.944V530.942L417.399 507.563C410.401 507.563 404.675 513.301 404.675 520.315V577.699C404.675 584.713 410.401 590.451 417.399 590.451H474.655C481.653 590.451 487.379 584.713 487.379 577.699L464.052 561.759H448.148C440.547 561.759 434.364 555.562 434.364 547.944Z" fill="#D8DEFF"/>
<path opacity="0.5" d="M516.24 407.141H170.114C158.842 407.141 149.672 397.95 149.672 386.653V266.104C149.672 254.806 158.842 245.615 170.114 245.615H516.24C527.512 245.615 536.683 254.806 536.683 266.104V386.653C536.683 397.95 527.512 407.141 516.24 407.141Z" fill="#D8DEFF"/>
<path d="M367.331 384.294H141.486C129.922 384.294 120.513 374.864 120.513 363.274V242.725C120.513 231.135 129.921 221.705 141.486 221.705H487.612C499.176 221.705 508.585 231.135 508.585 242.725C508.585 320.786 445.219 384.294 367.331 384.294ZM141.486 223.831C131.091 223.831 122.634 232.307 122.634 242.725V363.274C122.634 373.692 131.091 382.168 141.486 382.168H367.331C444.05 382.168 506.464 319.615 506.464 242.725C506.464 232.307 498.007 223.831 487.612 223.831H141.486Z" fill="#D8DEFF"/>
<path d="M395.98 508.672L393.736 476.832L411.706 473.009L412.884 506.757C413.592 507.506 414.204 508.368 414.688 509.339C417.317 514.619 415.177 521.035 409.909 523.67C404.641 526.305 398.239 524.16 395.61 518.881C393.934 515.513 394.204 511.688 395.98 508.672Z" fill="#A0616A"/>
<path d="M367.453 304.511L360.54 309.675L377.531 406.781L375.047 412.726L378.36 415.848L379.376 423.316L392.755 492.686H413.158C412.858 490.276 418.757 487.806 418.459 485.247C418.119 482.321 415.729 477.895 415.389 474.804C415.284 473.847 415.179 472.883 415.073 471.912C414.919 470.487 414.764 469.047 414.609 467.595C414.489 466.47 414.369 465.337 414.248 464.198C411.64 439.526 410.567 411.764 409.06 387.791C407.14 357.229 404.513 332.827 397.098 328.839L367.453 304.511L367.453 304.511Z" fill="#9655FF"/>
<path d="M419.026 775.581C421.216 775.718 422.427 772.991 420.77 771.401L420.605 770.744C420.627 770.692 420.648 770.639 420.67 770.586C422.886 765.292 430.393 765.329 432.59 770.631C434.539 775.337 437.021 780.05 437.632 785.026C437.906 787.222 437.783 789.46 437.297 791.615C441.865 781.614 444.268 770.694 444.268 759.713C444.268 756.953 444.118 754.194 443.809 751.442C443.556 749.191 443.207 746.953 442.755 744.736C440.31 732.752 435.016 721.338 427.38 711.804C423.71 709.793 420.648 706.65 418.799 702.882C418.135 701.523 417.614 700.061 417.368 698.571C417.786 698.626 418.943 692.25 418.628 691.859C419.21 690.973 420.252 690.533 420.888 689.669C424.05 685.372 428.407 686.123 430.681 691.962C435.54 694.419 435.587 698.495 432.606 702.415C430.709 704.909 430.448 708.283 428.784 710.953C428.955 711.173 429.133 711.386 429.305 711.605C432.444 715.641 435.16 719.979 437.449 724.537C436.802 719.472 437.757 713.37 439.385 709.437C441.239 704.955 444.713 701.181 447.773 697.306C451.448 692.653 458.984 694.683 459.631 700.583C459.638 700.64 459.644 700.697 459.65 700.754C459.195 701.011 458.75 701.284 458.315 701.572C455.835 703.216 456.692 707.07 459.631 707.525L459.698 707.535C459.533 709.176 459.253 710.802 458.842 712.402C462.767 727.615 454.293 733.155 442.193 733.404C441.926 733.542 441.666 733.679 441.399 733.809C442.625 737.269 443.604 740.817 444.33 744.414C444.981 747.591 445.433 750.804 445.686 754.029C446.001 758.1 445.974 762.19 445.631 766.254L445.652 766.109C446.521 761.634 448.946 757.454 452.466 754.558C457.71 750.241 465.118 748.651 470.776 745.181C473.499 743.51 476.988 745.669 476.513 748.833L476.49 748.985C475.648 749.328 474.826 749.726 474.031 750.172C473.577 750.429 473.132 750.702 472.697 750.99C470.216 752.635 471.074 756.488 474.013 756.943L474.079 756.953C474.127 756.96 474.168 756.967 474.216 756.974C472.771 760.413 470.758 763.604 468.238 766.357C465.783 779.637 455.243 780.897 443.967 777.03H443.96C442.727 782.411 440.926 787.668 438.612 792.679H419.505C419.436 792.466 419.374 792.246 419.313 792.033C421.08 792.143 422.86 792.04 424.6 791.718C423.182 789.974 421.765 788.217 420.347 786.474C420.313 786.44 420.285 786.405 420.258 786.371C419.539 785.479 418.813 784.593 418.094 783.701L418.093 783.7C418.048 780.961 418.376 778.231 419.025 775.581L419.026 775.581Z" fill="#F2F2F2"/>
<path d="M205.32 792.735C205.32 793.437 205.882 794 206.582 794H475.146C475.846 794 476.408 793.437 476.408 792.735C476.408 792.034 475.846 791.471 475.146 791.471H206.582C205.882 791.471 205.32 792.034 205.32 792.735H205.32Z" fill="#CCCCCC"/>
<path d="M30.0583 108C16.7713 108 6 118.795 6 132.112V540.506H8.12061V275.561C8.12061 184.193 82.0239 110.125 173.189 110.125L594.855 109.739L594.47 108H30.0583Z" fill="#9655FF"/>
<path d="M206.398 380.043C206.398 381.467 206.355 382.891 206.281 384.294H141.486C130.491 384.294 121.573 375.356 121.573 364.337V303.998C124.362 303.69 127.193 303.531 130.056 303.531C172.214 303.531 206.398 337.791 206.398 380.043H206.398Z" fill="#D8DEFF"/>
<path d="M446.611 302.464H239.46C235.93 302.464 233.06 305.34 233.06 308.879C233.06 312.417 235.93 315.293 239.46 315.293H446.611C450.141 315.293 453.011 312.417 453.011 308.879C453.011 305.34 450.141 302.464 446.611 302.464Z" fill="#D8DEFF"/>
<path d="M303.688 266.499H239.46C235.93 266.499 233.06 269.375 233.06 272.913C233.06 276.451 235.93 279.328 239.46 279.328H303.688C307.218 279.328 310.088 276.451 310.088 272.913C310.088 269.375 307.218 266.499 303.688 266.499Z" fill="#D8DEFF"/>
<path d="M366.76 777.234L352.629 777.233L345.907 722.607L366.763 722.608L366.76 777.234Z" fill="#A0616A"/>
<path d="M367.257 792.008L323.803 792.006V791.456C323.804 782.094 331.376 774.505 340.717 774.505H340.718L348.655 768.47L363.465 774.506L367.258 774.506L367.257 792.008V792.008Z" fill="#2F2E41"/>
<path d="M337.346 508.094L344.768 572.917L328.333 640.396L342.647 757.821L369.155 759.946C369.155 759.946 381.878 673.87 370.215 644.116L399.904 527.222L377.637 514.47L337.346 508.094Z" fill="#2F2E41"/>
<path d="M365.001 289.063C360.323 284.059 361.926 279.499 354.693 278.221C349.791 277.355 343.89 278.224 338.869 278.219C326.251 278.208 324.355 285.2 317.09 294.49C298.38 318.418 315.787 337.62 311.368 366.228C307.262 392.81 318.267 407.286 313.393 433.939C311.073 446.626 306.575 464.491 298.706 479.082C294.361 487.138 292.277 496.511 293.343 505.438C294.286 513.338 396.094 514.259 398.911 512.315C402.228 510.026 401.106 505.119 401.43 501.7C402.308 492.438 403.201 485.949 400.981 476.488C398.896 467.599 398.935 457.269 398.906 448.081C398.878 439.223 386.429 453.847 387.152 445.003C388.074 433.724 389.903 422.689 391.918 411.512C393.477 402.861 394.088 393.972 396.379 385.502C399.018 375.745 402.165 367.162 402.271 356.928C402.353 348.963 404.271 337.828 401.111 330.53C396.456 319.779 387.069 310.099 379.15 301.488C375.212 297.206 371.303 294.42 366.805 290.871" fill="#9655FF"/>
<path d="M205.178 338.056L233.843 351.968L228.198 369.488L198.414 353.699C197.413 353.942 196.362 354.045 195.281 353.981C189.404 353.635 184.919 348.58 185.264 342.689C185.608 336.799 190.653 332.304 196.53 332.649C200.278 332.87 203.454 335.01 205.178 338.056L205.178 338.056Z" fill="#A0616A"/>
<path d="M293.105 417.462C290.359 416.004 248.535 389.272 226.544 376.855C226.132 376.622 223.293 378.146 222.897 377.923C222.292 377.581 222.867 375.048 222.302 374.729C221.078 374.038 218.791 375.604 217.776 375.031C214.102 372.956 214.88 364.103 214.88 364.103L222.302 346.037L234.437 345.649L237.147 350.288L242.9 349.593L246.69 354.539L290.366 371.714C292.063 348.89 301.17 330.061 311.036 311.641L315.023 312.396C325.079 314.3 331.787 323.892 330.142 334.015L318.624 404.87C317.509 411.463 312.855 416.778 306.478 418.743C301.87 420.163 297.089 419.576 293.105 417.462Z" fill="#9655FF"/>
<path d="M336.466 271.504C354.388 271.504 368.917 256.943 368.917 238.981C368.917 221.019 354.388 206.458 336.466 206.458C318.544 206.458 304.016 221.019 304.016 238.981C304.016 256.943 318.544 271.504 336.466 271.504Z" fill="#A0616A"/>
<path d="M372.484 239.97C371.349 239.513 370.214 239.131 369.229 238.886C374.797 245.912 365.397 252.078 363.938 259.269C364.059 264.977 360.945 267.566 355.497 269.13L355.625 268.683C311.314 280.059 358.056 242.192 323.412 241.149C318.132 241.458 325.184 224.819 319.755 225.656C305.971 227.781 305.328 226.321 303.851 236.284C301.167 237.165 297.488 233.095 297.923 228.844C296.941 227.055 294.375 228.2 293.342 225.486C292.25 223.414 290.172 209.865 294.911 216.198C295.225 211.874 294.005 203.035 299.386 210.587C298.686 207.152 301.661 208.639 302.906 210.683C303.786 208.674 304.666 206.677 305.536 204.668C305.292 205.572 305.451 206.56 305.897 207.452C308.398 202.127 312.216 201.645 318.174 200.141C318.105 201.773 318.143 203.681 318.365 205.157C325.284 193.668 342.04 196.878 348.721 207.028C352.955 207.997 354.745 206.528 358.986 207.591C370.382 210.446 375.591 228.057 372.484 239.97V239.97Z" fill="#2F2E41"/>
<path d="M458.751 546.882H497.982V507.563C497.982 500.549 492.256 494.811 485.258 494.811H447.087V535.192C447.087 541.638 452.319 546.882 458.751 546.882Z" fill="#D8DEFF"/>
<path d="M141.408 175.857C146.36 175.857 150.374 171.744 150.374 166.67C150.374 161.596 146.36 157.483 141.408 157.483C136.456 157.483 132.441 161.596 132.441 166.67C132.441 171.744 136.456 175.857 141.408 175.857Z" fill="#9655FF"/>
<path d="M172.383 175.857C177.335 175.857 181.35 171.744 181.35 166.67C181.35 161.596 177.335 157.483 172.383 157.483C167.431 157.483 163.417 161.596 163.417 166.67C163.417 171.744 167.431 175.857 172.383 175.857Z" fill="#9655FF"/>
<path d="M203.359 175.857C208.311 175.857 212.325 171.744 212.325 166.67C212.325 161.596 208.311 157.483 203.359 157.483C198.407 157.483 194.392 161.596 194.392 166.67C194.392 171.744 198.407 175.857 203.359 175.857Z" fill="#9655FF"/>
<path d="M423.23 197.554C422.353 197.554 421.64 198.269 421.64 199.148V209.775C421.64 210.653 422.353 211.369 423.23 211.369H433.833C434.71 211.369 435.424 210.653 435.424 209.775V199.148C435.424 198.269 434.71 197.554 433.833 197.554H423.23Z" fill="#D8DEFF"/>
<path d="M447.617 197.554C446.74 197.554 446.027 198.269 446.027 199.148V209.775C446.027 210.653 446.74 211.369 447.617 211.369H458.22C459.098 211.369 459.811 210.653 459.811 209.775V199.148C459.811 198.269 459.098 197.554 458.22 197.554H447.617Z" fill="#D8DEFF"/>
<path d="M472.005 197.554C471.127 197.554 470.414 198.269 470.414 199.148V209.775C470.414 210.653 471.127 211.369 472.005 211.369H482.608C483.485 211.369 484.198 210.653 484.198 209.775V199.148C484.198 198.269 483.485 197.554 482.608 197.554H472.005Z" fill="#D8DEFF"/>
</g>
<defs>
<clipPath id="clip0_327_4">
<rect width="589" height="686" fill="white" transform="translate(6 108)"/>
</clipPath>
</defs>
</svg>
