<svg width="644" height="913" viewBox="0 0 644 913" fill="none" xmlns="http://www.w3.org/2000/svg">
<path d="M0 20C0 8.95429 8.95431 0 20 0H643.5V795H0V20Z" fill="#EF8E67"/>
<rect x="1" y="795" width="385" height="118" fill="#618AF7"/>
<rect x="386" y="795" width="258" height="118" fill="#1C1B37"/>
<g clip-path="url(#clip0_321_2)">
<path d="M508.455 259.614L517.941 264.245C514.05 258.649 510.698 249.909 508.903 242.955C505.864 249.433 500.966 257.36 496.117 262.094L506.142 259.436C499.965 290.641 476.73 313.043 450.123 313.043L449.747 314.17C477.538 314.17 502.148 292.079 508.455 259.614V259.614Z" fill="#3F3D56"/>
<path d="M479.781 212.068H539.713C542.255 212.068 544.323 214.2 544.323 216.82C544.323 219.44 542.255 221.572 539.713 221.572H479.781C477.239 221.572 475.171 219.44 475.171 216.82C475.171 214.2 477.239 212.068 479.781 212.068Z" fill="#3F3D56"/>
<path d="M344.335 318.799C351.481 312.713 360.32 311.58 364.077 316.268C367.834 320.956 365.086 329.688 357.937 335.775C355.113 338.247 351.757 339.986 348.147 340.847L317.554 366.239L306.3 351.187L337.654 327.753C339.155 324.261 341.446 321.191 344.335 318.799V318.799Z" fill="#FFB6B6"/>
<path d="M167.51 376.09C167.495 374.967 167.505 365.172 174.54 358.981C182.622 351.869 194.027 354.747 198.027 355.757C207.266 358.089 208.024 362.175 216.701 366.372C232.936 374.226 212.595 370.206 222.255 367.688C225.598 366.816 273.702 363.377 285.676 355.781C308.964 341.008 324.831 332.05 324.831 332.05L335.204 353.432C335.204 353.432 320.205 374.929 299.095 390.854C277.44 407.189 266.613 415.357 250.159 418.513C248.742 418.785 213.893 424.917 185.825 403.304C179.423 398.374 167.693 389.341 167.51 376.09H167.51Z" fill="#E6E6E6"/>
<path opacity="0.2" d="M366.553 352.946C382.551 352.946 395.52 339.579 395.52 323.09C395.52 306.601 382.551 293.234 366.553 293.234C350.555 293.234 337.586 306.601 337.586 323.09C337.586 339.579 350.555 352.946 366.553 352.946Z" fill="#2E2EFF"/>
<path d="M394.382 366.235C410.38 366.235 423.349 352.868 423.349 336.379C423.349 319.89 410.38 306.522 394.382 306.522C378.384 306.522 365.415 319.89 365.415 336.379C365.415 352.868 378.384 366.235 394.382 366.235Z" fill="white"/>
<path opacity="0.5" d="M394.382 366.235C410.38 366.235 423.349 352.868 423.349 336.379C423.349 319.89 410.38 306.522 394.382 306.522C378.384 306.522 365.415 319.89 365.415 336.379C365.415 352.868 378.384 366.235 394.382 366.235Z" fill="#2E2EFF"/>
<path d="M423.758 380.262C439.755 380.262 452.724 366.895 452.724 350.406C452.724 333.917 439.755 320.549 423.758 320.549C407.76 320.549 394.791 333.917 394.791 350.406C394.791 366.895 407.76 380.262 423.758 380.262Z" fill="white"/>
<path opacity="0.8" d="M423.758 380.262C439.755 380.262 452.724 366.895 452.724 350.406C452.724 333.917 439.755 320.549 423.758 320.549C407.76 320.549 394.791 333.917 394.791 350.406C394.791 366.895 407.76 380.262 423.758 380.262Z" fill="#2E2EFF"/>
<path d="M450.041 392.812C466.039 392.812 479.008 379.445 479.008 362.956C479.008 346.467 466.039 333.1 450.041 333.1C434.043 333.1 421.074 346.467 421.074 362.956C421.074 379.445 434.043 392.812 450.041 392.812Z" fill="#2E2EFF"/>
<path d="M230.562 386.245C229.024 383.572 222.368 386.434 221.145 384.008C219.926 381.59 226.109 377.906 229.642 369.491C230.279 367.973 234.294 358.41 231.322 355.459C225.688 349.865 199.909 372.948 190.888 365.395C188.908 363.737 187.525 360.427 181.533 355.054C179.149 352.917 177.708 351.952 176.312 352.311C174.333 352.82 174.176 355.551 172.054 360.92C168.87 368.972 166.988 368.485 165.133 374.909C163.756 379.678 164.071 382.451 162.451 382.991C160.158 383.755 158.048 378.697 155.142 379.15C152.177 379.612 150.385 385.502 149.819 389.911C148.756 398.186 151.704 403.646 153.339 409.388C155.114 415.627 156.168 425.116 152.067 438.549L111.476 556.427C120.437 532.239 146.385 465.933 157.288 441.293C160.435 434.18 163.91 426.965 171.046 424.117C177.916 421.376 187.352 423.013 199.38 420.026C200.785 419.677 204.684 418.655 205.174 416.291C205.58 414.338 203.287 413.247 203.639 411.417C204.112 408.962 208.621 408.932 214.162 406.1C218.07 404.103 220.504 401.728 222.597 399.686C223.229 399.07 232.61 389.805 230.562 386.245H230.562H230.562Z" fill="#F2F2F2"/>
<path d="M70.864 448.301C69.1469 448.308 68.5899 452.501 67.0814 452.419C65.5783 452.339 65.6083 448.148 62.6204 443.932C62.0815 443.172 58.6859 438.382 56.4231 439.034C52.1342 440.27 55.6879 459.971 49.4879 462.355C48.1273 462.878 46.1523 462.623 41.8648 464.104C40.1592 464.693 39.2837 465.144 39.0522 465.954C38.7236 467.102 39.9786 467.969 41.9228 470.592C44.8384 474.525 44.0637 475.338 46.5875 478.129C48.4611 480.202 49.8721 480.843 49.6618 481.818C49.3643 483.198 46.3468 482.806 45.7241 484.407C45.0888 486.04 47.376 488.646 49.3124 490.205C52.9462 493.13 56.3969 493.214 59.6024 494.044C63.086 494.946 67.9086 497.151 73.1219 503.101L117.542 557.647C108.609 546.134 84.5218 513.877 75.9345 501.252C73.4556 497.607 71.0228 493.767 71.7258 489.336C72.4026 485.07 75.9044 480.769 77.9528 473.822C78.192 473.011 78.83 470.744 77.8462 469.813C77.0329 469.044 75.8519 469.89 75.0822 469.183C74.0497 468.236 75.3364 465.946 75.5867 462.326C75.7632 459.773 75.3347 457.856 74.9662 456.208C74.8551 455.711 73.1496 448.292 70.864 448.301V448.301V448.301Z" fill="#F2F2F2"/>
<path d="M105.118 456.227L104.084 446.708L104.557 445.987C106.744 442.65 107.859 439.392 107.872 436.298C107.874 435.807 107.852 435.315 107.83 434.814C107.74 432.829 107.629 430.36 108.877 427.483C109.578 425.879 111.544 422.166 114.5 422.625C115.296 422.74 115.898 423.117 116.355 423.558C116.422 423.448 116.491 423.338 116.565 423.218C117.486 421.771 118.215 421.15 118.917 420.553C119.457 420.093 120.014 419.62 120.888 418.498C121.271 418.007 121.57 417.575 121.822 417.211C122.587 416.113 123.586 414.803 125.347 414.826C127.229 414.918 128.214 416.522 128.867 417.584C130.033 419.477 130.562 420.842 130.912 421.748C131.039 422.079 131.184 422.451 131.257 422.566C131.864 423.485 136.793 422.625 138.65 422.313C142.822 421.596 146.432 420.975 147.919 423.687C148.984 425.627 148.193 428.191 145.495 431.514C144.655 432.548 143.761 433.334 142.967 433.95C143.625 434.354 144.213 434.975 144.452 435.949C145.014 438.256 143.09 440.568 138.735 442.829C137.654 443.395 136.198 444.149 134.158 444.512C133.197 444.682 132.332 444.723 131.592 444.746C131.576 445.187 131.476 445.665 131.215 446.157C130.45 447.605 128.858 448.294 126.459 448.129C123.82 447.986 121.646 447.467 119.729 447.012C118.054 446.617 116.612 446.281 115.479 446.359C113.379 446.534 111.76 448.266 109.861 450.514L105.119 456.227H105.118L105.118 456.227Z" fill="#F2F2F2"/>
<path d="M109.917 399.555L101.247 403L100.45 402.712C96.7638 401.378 93.423 401.093 90.5168 401.864C90.0547 401.987 89.5989 402.134 89.1344 402.283C87.2937 402.876 85.0058 403.613 81.989 403.098C80.3061 402.807 76.3223 401.788 76.0037 398.724C75.9097 397.901 76.1106 397.206 76.4088 396.638C76.2883 396.599 76.1672 396.558 76.0364 396.515C74.4442 395.964 73.677 395.395 72.9381 394.846C72.37 394.425 71.7843 393.989 70.5102 393.402C69.9514 393.145 69.4702 392.957 69.0656 392.798C67.8407 392.314 66.3581 391.65 65.933 389.888C65.5419 387.989 66.7973 386.6 67.6279 385.679C69.1092 384.036 70.2562 383.163 71.0171 382.584C71.2954 382.374 71.608 382.135 71.6972 382.032C72.406 381.195 70.3491 376.498 69.5848 374.726C67.8538 370.749 66.3559 367.307 68.5236 365.137C70.0734 363.582 72.681 363.721 76.4837 365.568C77.6674 366.143 78.6317 366.835 79.4111 367.47C79.6238 366.712 80.0568 365.968 80.9107 365.483C82.9334 364.338 85.591 365.67 88.8176 369.437C89.6224 370.372 90.6991 371.632 91.5572 373.574C91.9606 374.489 92.2188 375.341 92.4281 376.073C92.8462 375.977 93.3202 375.955 93.8479 376.091C95.4005 376.486 96.4513 377.898 96.9045 380.332C97.4403 383 97.5044 385.299 97.5637 387.326C97.6175 389.096 97.6685 390.619 98.0291 391.728C98.7257 393.778 100.762 394.952 103.353 396.276L109.918 399.555L109.917 399.555H109.917Z" fill="#F2F2F2"/>
<path d="M105.118 371.514L104.084 361.995L104.557 361.274C106.744 357.937 107.859 354.679 107.872 351.586C107.874 351.094 107.852 350.602 107.83 350.101C107.74 348.116 107.629 345.648 108.877 342.77C109.578 341.166 111.544 337.453 114.5 337.913C115.296 338.027 115.898 338.404 116.355 338.845C116.422 338.735 116.491 338.625 116.565 338.505C117.486 337.058 118.215 336.437 118.917 335.84C119.457 335.38 120.014 334.907 120.888 333.785C121.271 333.294 121.57 332.862 121.822 332.498C122.587 331.4 123.586 330.09 125.347 330.113C127.229 330.205 128.214 331.809 128.867 332.871C130.033 334.764 130.562 336.129 130.912 337.035C131.039 337.366 131.184 337.738 131.257 337.853C131.864 338.772 136.793 337.912 138.65 337.6C142.822 336.883 146.432 336.263 147.919 338.974C148.984 340.914 148.193 343.478 145.495 346.801C144.655 347.835 143.761 348.621 142.967 349.237C143.625 349.641 144.213 350.262 144.452 351.236C145.014 353.543 143.09 355.855 138.735 358.116C137.654 358.682 136.198 359.436 134.158 359.799C133.197 359.969 132.332 360.01 131.592 360.033C131.576 360.474 131.476 360.952 131.215 361.444C130.45 362.892 128.858 363.581 126.459 363.416C123.82 363.273 121.646 362.754 119.729 362.299C118.054 361.904 116.612 361.568 115.479 361.646C113.379 361.821 111.76 363.554 109.861 365.801L105.119 371.514H105.118L105.118 371.514Z" fill="#F2F2F2"/>
<path d="M114.568 556.272L112.632 555.022L112.164 552.719L112.632 555.022L110.376 555.288C110.34 555.072 110.218 554.576 110.033 553.799C109.023 549.543 105.944 536.592 103.375 516.195C101.583 501.957 100.568 487.318 100.359 472.68C100.149 458.019 100.823 446.92 101.362 437.999C101.77 431.271 102.265 424.864 102.751 418.622C104.044 401.948 105.264 386.198 104.356 368.761C104.156 364.868 103.734 356.765 99.1415 348.143C96.4772 343.143 92.8074 338.703 88.2324 334.953L91.0773 331.267C96.1271 335.412 100.187 340.33 103.146 345.882C108.238 355.442 108.697 364.271 108.918 368.513C109.841 386.258 108.608 402.16 107.302 418.995C106.82 425.213 106.325 431.592 105.919 438.293C105.384 447.131 104.718 458.134 104.925 472.607C105.13 487.07 106.133 501.529 107.901 515.588C110.439 535.728 113.473 548.486 114.469 552.678C115 554.916 115.112 555.385 114.568 556.272V556.272V556.272Z" fill="#F2F2F2"/>
<path d="M79.8583 342.43C79.671 342.43 79.4815 342.426 79.2898 342.412C75.4015 342.196 71.8008 339.797 68.5858 335.284C67.0787 333.16 66.3073 330.738 64.7689 325.908C64.5303 325.163 63.3709 321.385 62.6664 316.187C62.2049 312.791 62.2629 311.371 62.9161 310.116C63.6407 308.719 64.8135 307.745 66.1333 307.087C66.0754 306.637 66.1221 306.173 66.3117 305.699C67.0898 303.737 69.1588 303.994 70.278 304.118C70.8443 304.192 71.5511 304.288 72.3136 304.247C73.5131 304.187 74.1574 303.82 75.1339 303.268C76.0681 302.74 77.2297 302.082 78.9531 301.719C82.3509 300.989 85.198 301.981 86.1366 302.308C91.075 304.003 93.5096 307.961 96.3277 312.543C96.8896 313.462 98.8181 316.808 100.091 321.395C101.01 324.704 100.88 326.174 100.604 327.268C100.042 329.516 98.7156 330.803 95.3467 333.643C91.8286 336.616 90.0628 338.106 88.5467 339.011C85.0174 341.111 82.8012 342.43 79.8583 342.43V342.43H79.8583Z" fill="#F2F2F2"/>
<path d="M39.2944 554.206C39.2944 554.99 39.9053 555.619 40.666 555.619H642.628C643.389 555.619 644 554.99 644 554.206C644 553.422 643.389 552.792 642.628 552.792H40.666C39.9053 552.792 39.2944 553.422 39.2944 554.206V554.206Z" fill="#CCCCCC"/>
<path d="M199.687 321.708C219.644 321.708 235.822 305.034 235.822 284.464C235.822 263.894 219.644 247.219 199.687 247.219C179.73 247.219 163.552 263.894 163.552 284.464C163.552 305.034 179.73 321.708 199.687 321.708Z" fill="#FFB6B6"/>
<path d="M482.683 534.687L445.469 495.425L426.259 516.078L453.984 553.724L481.486 556.966L482.683 534.687Z" fill="#FFB6B6"/>
<path d="M270.189 461.061C272.366 461.247 279.283 462.676 285.894 458.926C290.406 456.368 292.72 452.563 293.502 451.354C303.198 436.344 340.414 412.937 373.815 411.497C381.379 411.171 386.358 412.074 390.883 414.505C397.3 417.953 399.862 422.891 408.004 434.46C412.458 440.788 417.387 446.749 421.894 453.037C448.285 489.847 458.29 492.737 457.267 504.538C456.132 517.631 442.432 530.054 433.326 528.62C429.597 528.033 428.153 525.36 423.17 519.949C408.562 504.085 402.518 507.016 392.117 494.865C379.974 480.678 381.564 468.915 375.228 468.461C369.353 468.04 366.857 478.075 354.314 491.405C348.575 497.505 344.488 500.303 332.037 509.206C283.549 543.877 282.776 546.313 272.99 549.079C268.709 550.288 238.323 558.875 227.498 545.21C210.559 523.827 250.576 459.381 270.189 461.061V461.061Z" fill="#2F2E41"/>
<path d="M471.305 543.56C474.042 542.293 477.243 540.812 478.272 537.406C478.969 535.101 478.568 532.259 477.128 530.296C475.466 528.03 473.007 527.731 473.106 527.331C473.258 526.72 479.073 526.959 485.457 529.285C486.662 529.724 492.12 531.779 499.062 537.365C504.624 541.841 503.876 542.738 507.364 545.319C518.07 553.241 528.112 546.998 533.906 554.427C536.142 557.294 537.095 561.365 536.154 564.656C534.265 571.266 525.076 573.541 520.053 574.716C507.958 577.544 498.803 575.235 489.244 573.575C456.733 567.928 438.467 573.071 436.022 565.308C435.56 563.839 436.311 563.964 438.818 553.182C441.292 542.54 441.211 539.618 443.318 538.766C446.49 537.483 448.619 543.318 456.609 545.315C463.69 547.084 469.532 544.38 471.305 543.56V543.56Z" fill="#2F2E41"/>
<path d="M416.522 663.13L407.12 609.104L379.972 615.075L382.404 662.272L403.394 680.872L416.522 663.13Z" fill="#FFB6B6"/>
<path d="M280.806 479.221C282.506 480.635 287.451 485.82 294.964 486.545C300.092 487.039 304.079 485.23 305.385 484.681C321.586 477.873 365.132 480.046 393.555 498.186C399.991 502.294 403.619 505.923 406.039 510.554C409.47 517.12 408.899 522.689 409.334 536.974C409.572 544.788 410.402 552.574 410.707 560.385C412.489 606.118 419.193 614.3 411.917 623.473C403.845 633.651 385.741 636 378.987 629.543C376.222 626.899 376.483 623.851 375.308 616.491C371.863 594.909 365.265 593.836 363.279 577.762C360.96 558.995 368.684 550.182 363.689 546.139C359.058 542.39 351.525 549.248 333.884 553.019C325.812 554.745 320.905 554.694 305.752 554.855C246.742 555.48 244.775 557.048 235.171 553.672C230.97 552.196 201.148 541.714 199.636 524.142C197.27 496.644 265.493 466.48 280.806 479.221V479.221Z" fill="#2F2E41"/>
<path d="M402.274 663.887C405.229 664.423 408.684 665.049 411.392 662.827C413.224 661.323 414.44 658.74 414.318 656.281C414.178 653.445 412.305 651.774 412.606 651.5C413.064 651.083 417.746 654.646 421.761 660.266C422.519 661.326 425.915 666.186 428.616 674.826C430.78 681.749 429.672 682.058 431.152 686.213C435.696 698.964 447.406 699.61 448.153 709.111C448.441 712.777 447.012 716.698 444.44 718.877C439.275 723.252 430.432 719.816 425.637 717.881C414.088 713.221 407.77 706.012 400.765 699.105C376.94 675.617 359.024 669.3 361.23 661.461C361.648 659.978 362.202 660.516 370.15 653.046C377.995 645.672 379.52 643.207 381.728 643.721C385.051 644.496 383.634 650.556 389.158 656.833C394.052 662.395 400.36 663.54 402.274 663.887V663.887Z" fill="#2F2E41"/>
<path d="M204.614 291.584C206.021 286.397 204.254 284.507 206.055 282.179C206.055 282.179 206.779 281.242 213.259 278.714C211.347 267.282 212.778 265.349 212.778 265.349C214.428 263.121 217.732 262.583 219.982 262.874C224.74 263.491 225.582 267.924 228.627 267.824C232.832 267.687 237.876 259.01 236.311 251.489C235.033 245.355 229.527 240.799 228.146 241.589C226.778 242.373 221.851 238.917 219.982 239.609C218.706 240.082 212.699 239.453 211.337 240.104C209.85 240.816 205.591 245.244 205.184 244.686C202.354 240.809 202.414 239.455 200.772 238.619C197.863 237.139 194.7 239.875 189.246 242.579C178.025 248.143 174.739 244.824 169.556 249.509C166.937 251.876 165.533 256.399 162.832 265.349C159.055 277.866 157.166 284.124 158.99 290.099C160.851 296.193 163.591 294.867 167.635 303.464C172.136 313.034 170.585 318.597 174.838 320.789C178.126 322.483 183.409 321.405 185.404 318.314C188.819 313.022 179.992 305.864 183.003 297.524C184.851 292.405 190.552 288.523 194.048 289.604C198.002 290.826 198.293 298.132 200.772 298.019C202.895 297.922 204.369 292.488 204.614 291.584V291.584Z" fill="#2F2E41"/>
<path d="M177.239 327.224C184.634 318.678 214.753 327.523 217.58 341.084C218.743 346.661 214.451 349.017 215.659 355.439C217.428 364.832 227.439 364.192 234.869 373.754C245.419 387.329 234.551 400.599 246.395 423.253C248.926 428.094 251.06 432.174 255.52 436.123C265.756 445.185 275.281 442.077 280.493 450.478C284.391 456.761 282.789 464.504 282.414 466.318C280.876 473.756 276.707 475.568 273.77 481.663C268.882 491.803 274.416 499.247 274.73 511.363C275.123 526.521 267.308 547.533 251.678 554.428C234.119 562.173 212.941 549.345 202.693 536.608C196.578 529.007 194.802 521.996 192.127 513.343C180.171 474.668 173.416 478.166 164.273 447.508C153.82 412.461 151.765 371.401 164.273 358.409C165.93 356.687 170.493 352.706 173.397 345.539C177.306 335.894 173.929 331.049 177.239 327.224H177.239Z" fill="#E6E6E6"/>
<path d="M412.089 360.275C413.907 372.579 405.674 384.113 393.737 385.986C381.8 387.86 370.609 379.375 368.791 367.071C366.973 354.767 375.206 343.233 387.143 341.359C399.08 339.486 410.271 347.971 412.089 360.275ZM371.07 366.713C372.697 377.722 382.709 385.314 393.39 383.638C404.071 381.961 411.437 371.641 409.81 360.633C408.183 349.624 398.171 342.032 387.49 343.708C376.809 345.385 369.444 355.705 371.07 366.713Z" fill="#3F3D56"/>
<path d="M379.226 365.433C380.167 371.807 385.964 376.202 392.148 375.231C398.331 374.261 402.596 368.286 401.654 361.913C400.712 355.539 394.916 351.144 388.732 352.114C382.549 353.085 378.284 359.06 379.226 365.433Z" fill="#3F3D56"/>
<path d="M477.839 173.948C480.565 192.399 497.347 205.124 515.249 202.314C533.151 199.504 545.497 182.207 542.771 163.756C540.044 145.304 523.263 132.579 505.361 135.389C487.459 138.199 475.113 155.496 477.839 173.948Z" fill="#2E2EFF"/>
<path d="M355.342 357.994C364.373 355.842 372.771 358.901 374.099 364.826C375.426 370.75 369.181 377.295 360.146 379.446C356.548 380.357 352.791 380.366 349.19 379.473L310.811 388.091L307.543 372.439L345.481 362.926C348.339 360.494 351.72 358.802 355.342 357.994V357.994Z" fill="#FFB6B6"/>
<path d="M172.029 368.828C172.266 367.732 174.481 358.207 182.719 353.867C192.181 348.882 202.626 354.41 206.29 356.348C214.752 360.827 214.57 364.982 222.065 371.14C236.088 382.662 254.122 382.409 264.085 382.27C267.533 382.222 278.184 381.859 291.541 377.334C317.519 368.533 334.115 357.489 334.115 357.489L340.934 381.303C340.934 381.303 320.817 404.217 296.698 414.658C271.958 425.369 201.394 426.076 184.678 425.211C183.238 425.136 206.154 427.416 183.718 399.679C178.6 393.353 169.223 381.761 172.029 368.828L172.029 368.828Z" fill="#E6E6E6"/>
</g>
<defs>
<clipPath id="clip0_321_2">
<rect width="605" height="586" fill="white" transform="translate(39 135)"/>
</clipPath>
</defs>
</svg>
